<svg width="174" height="41" viewBox="0 0 174 41" fill="none" xmlns="http://www.w3.org/2000/svg">
<path fill-rule="evenodd" clip-rule="evenodd" d="M39.8632 27.1481C40.5758 26.4356 40.4371 25.2448 39.5799 24.7151L26.0671 16.3644C24.8092 15.5871 23.2202 15.5871 21.9623 16.3644L8.43216 24.7258C7.57497 25.2555 7.43632 26.4463 8.14885 27.1588L19.1937 38.2031C21.8486 40.8578 26.1528 40.8578 28.8077 38.2031L39.8632 27.1481ZM43.5183 21.6415C44.1651 22.0412 45.0145 21.9224 45.4602 21.3064C49.2614 16.0523 48.7958 8.66897 44.0632 3.93661C38.8141 -1.3122 30.3037 -1.3122 25.0546 3.93661C24.4729 4.5183 23.5271 4.52097 22.9454 3.93928C17.6963 -1.30954 9.18588 -1.30954 3.93681 3.93928C-0.799359 8.67521 -1.26215 16.0661 2.54843 21.3209C2.99447 21.936 3.84309 22.0543 4.48942 21.6549L22.7833 10.3497C23.538 9.88327 24.4914 9.88327 25.2462 10.3497L43.5183 21.6415ZM20.5 23.7809C20.5 23.3496 20.8496 23 21.2809 23H22.8427C23.274 23 23.6236 23.3496 23.6236 23.7809V25.3427C23.6236 25.774 23.274 26.1236 22.8427 26.1236H21.2809C20.8496 26.1236 20.5 25.774 20.5 25.3427V23.7809ZM21.2808 26.9045C20.8495 26.9045 20.4999 27.2542 20.4999 27.6855V29.2473C20.4999 29.6786 20.8495 30.0282 21.2808 30.0282H22.8426C23.2739 30.0282 23.6235 29.6786 23.6235 29.2473V27.6855C23.6235 27.2542 23.2739 26.9045 22.8426 26.9045H21.2808ZM24.4046 23.7809C24.4046 23.3496 24.7542 23 25.1855 23H26.7473C27.1786 23 27.5283 23.3496 27.5283 23.7809V25.3427C27.5283 25.774 27.1786 26.1236 26.7473 26.1236H25.1855C24.7542 26.1236 24.4046 25.774 24.4046 25.3427V23.7809ZM25.1855 26.9045C24.7542 26.9045 24.4046 27.2542 24.4046 27.6855V29.2473C24.4046 29.6786 24.7542 30.0282 25.1855 30.0282H26.7473C27.1786 30.0282 27.5283 29.6786 27.5283 29.2473V27.6855C27.5283 27.2542 27.1786 26.9045 26.7473 26.9045H25.1855Z" fill="#FE2D39"/>
<path d="M59.248 30.7513L61.1641 27.4467C62.3008 28.1732 63.3613 28.683 64.3457 28.976C65.3418 29.2689 66.4375 29.4154 67.6328 29.4154C69.0742 29.4154 70.2051 29.1049 71.0254 28.4838C71.8574 27.8627 72.2734 26.9779 72.2734 25.8295C72.2734 24.7748 71.9277 23.9486 71.2363 23.351C70.5566 22.7416 69.3906 22.1849 67.7383 21.681C65.1484 20.9193 63.25 19.976 62.043 18.851C60.8359 17.726 60.2324 16.1967 60.2324 14.2631C60.2324 12.1654 61.0117 10.4252 62.5703 9.04236C64.1406 7.65955 66.2734 6.96814 68.9688 6.96814C70.1523 6.96814 71.3184 7.10291 72.4668 7.37244C73.6152 7.64197 74.7402 8.05798 75.8418 8.62048L74.1895 12.0131C73.2285 11.4974 72.3086 11.1283 71.4297 10.9056C70.5508 10.683 69.6602 10.5717 68.7578 10.5717C67.4336 10.5717 66.3906 10.8588 65.6289 11.433C64.8672 12.0072 64.4863 12.8217 64.4863 13.8763C64.4863 14.8138 64.832 15.5521 65.5234 16.0912C66.2266 16.6302 67.4277 17.1517 69.127 17.6556C71.7637 18.4291 73.6562 19.4076 74.8047 20.5912C75.9648 21.7631 76.5449 23.3861 76.5449 25.4603C76.5449 27.6635 75.7539 29.474 74.1719 30.892C72.6016 32.3099 70.3574 33.0189 67.4395 33.0189C65.9746 33.0189 64.5449 32.8314 63.1504 32.4564C61.7676 32.0697 60.4668 31.5013 59.248 30.7513ZM95.0547 32.597H91.0117V29.8021H90.9414C90.3203 30.8802 89.541 31.6888 88.6035 32.2279C87.6777 32.767 86.6113 33.0365 85.4043 33.0365C83.7168 33.0365 82.3223 32.5443 81.2207 31.5599C80.1309 30.5638 79.5859 29.2103 79.5859 27.4994C79.5859 25.8588 80.1309 24.517 81.2207 23.474C82.3223 22.4193 83.957 21.7338 86.125 21.4174L91.0293 20.767V20.3802C91.0293 19.1381 90.707 18.2357 90.0625 17.6732C89.418 17.099 88.5332 16.8119 87.4082 16.8119C86.541 16.8119 85.6504 16.9701 84.7363 17.2865C83.834 17.6029 82.9609 18.0834 82.1172 18.7279L80.3066 16.2318C81.4199 15.3763 82.5801 14.7435 83.7871 14.3334C85.0059 13.9232 86.3242 13.7181 87.7422 13.7181C90.2031 13.7181 92.0371 14.3334 93.2441 15.5638C94.4512 16.7826 95.0547 18.6107 95.0547 21.0482V32.597ZM91.0293 25.0912V23.5267L87.0742 24.0541C85.9023 24.2181 85.0234 24.5345 84.4375 25.0033C83.8516 25.4603 83.5586 26.1459 83.5586 27.0599C83.5586 27.9388 83.834 28.6361 84.3848 29.1517C84.9355 29.6556 85.6562 29.9076 86.5469 29.9076C87.8828 29.9076 88.9609 29.4506 89.7812 28.5365C90.6133 27.6224 91.0293 26.474 91.0293 25.0912ZM116.5 32.597H112.316V29.7142H112.246C111.602 30.8158 110.799 31.6478 109.838 32.2103C108.889 32.7611 107.799 33.0365 106.568 33.0365C104.4 33.0365 102.771 32.3861 101.682 31.0853C100.604 29.7845 100.064 27.8275 100.064 25.2142V14.1576H104.23V24.7396C104.23 26.392 104.547 27.6342 105.18 28.4662C105.824 29.2982 106.791 29.7142 108.08 29.7142C109.334 29.7142 110.354 29.2631 111.139 28.3607C111.924 27.4467 112.316 26.2396 112.316 24.7396V14.1576H116.5V32.597ZM126.379 30.2943H126.309V32.597H122.125V5.94861H126.309V17.1986H126.379C127.082 16.0385 127.949 15.1713 128.98 14.597C130.023 14.0111 131.225 13.7181 132.584 13.7181C134.963 13.7181 136.809 14.5385 138.121 16.1791C139.434 17.808 140.09 20.0228 140.09 22.8236C140.09 25.9174 139.334 28.3959 137.822 30.2592C136.322 32.1107 134.295 33.0365 131.74 33.0365C130.568 33.0365 129.531 32.808 128.629 32.351C127.727 31.8939 126.977 31.2084 126.379 30.2943ZM126.256 22.5775V24.8275C126.256 26.2103 126.684 27.3705 127.539 28.308C128.395 29.2455 129.484 29.7142 130.809 29.7142C132.379 29.7142 133.604 29.1107 134.482 27.9037C135.361 26.6967 135.801 25.0092 135.801 22.8412C135.801 21.0248 135.391 19.6068 134.57 18.5873C133.762 17.556 132.637 17.0404 131.195 17.0404C129.73 17.0404 128.541 17.5619 127.627 18.6049C126.713 19.6478 126.256 20.972 126.256 22.5775ZM152.781 33.0365C149.898 33.0365 147.613 32.1752 145.926 30.4525C144.238 28.7181 143.395 26.4037 143.395 23.5092C143.406 20.4506 144.279 18.0541 146.014 16.3197C147.76 14.5853 150.133 13.7181 153.133 13.7181C156.027 13.7064 158.289 14.556 159.918 16.267C161.547 17.9779 162.361 20.2924 162.361 23.2103C162.361 26.2103 161.5 28.601 159.777 30.3822C158.055 32.1517 155.723 33.0365 152.781 33.0365ZM152.975 29.7142C154.65 29.7142 155.922 29.1693 156.789 28.0795C157.668 26.9779 158.107 25.39 158.107 23.3158C158.107 21.2767 157.668 19.724 156.789 18.6576C155.91 17.5795 154.633 17.0404 152.957 17.0404C151.316 17.0404 150.021 17.6088 149.072 18.7455C148.135 19.8705 147.666 21.4349 147.666 23.4388C147.666 25.4427 148.129 26.9896 149.055 28.0795C149.992 29.1693 151.299 29.7142 152.975 29.7142ZM166.844 32.597V5.94861H171.027V32.597H166.844Z" fill="#333333"/>
</svg>
